<svg xmlns="http://www.w3.org/2000/svg" xmlns:xlink="http://www.w3.org/1999/xlink" width="2160" height="2160" viewBox="0 0 2160 2160"><defs><clipPath id="b"><rect width="2160" height="2160"/></clipPath></defs><g id="a" clip-path="url(#b)"><rect width="2160" height="2160" fill="#2d7bcb"/><text transform="translate(1080 1567)" fill="#14151e" font-size="43" font-family="Tahoma"><tspan x="0" y="0">Visualization 1: A Colour A Second Process</tspan></text><text transform="translate(2020 1567)" fill="#14151e" font-size="43" font-family="Tahoma"><tspan x="-46.947" y="0">26</tspan></text><g transform="translate(1080 1592.787)"><text transform="translate(0 43.213)" fill="#14151e" font-size="43" font-family="Tahoma"><tspan x="0" y="0">Visualization 2: Who&apos;s Most Talkative Process</tspan></text><text transform="translate(940 43.213)" fill="#14151e" font-size="43" font-family="Tahoma"><tspan x="-46.947" y="0">33</tspan></text><line x2="8.127" transform="translate(871.599 26.412)" fill="none" stroke="#9e0da5" stroke-width="1" stroke-dasharray="5 24"/></g><g transform="translate(1080 1730.942)"><text transform="translate(0 43.058)" fill="#14151e" font-size="43" font-family="Tahoma"><tspan x="0" y="0">Visualization 4: Show, Don&apos;t Tell Process</tspan></text><text transform="translate(940 43.058)" fill="#14151e" font-size="43" font-family="Tahoma"><tspan x="-46.947" y="0">45</tspan></text></g><g transform="translate(1080 1938.176)"><text transform="translate(940 42.824)" fill="#14151e" font-size="43" font-family="Tahoma"><tspan x="-46.947" y="0">53</tspan></text><text transform="translate(0 42.824)" fill="#14151e" font-size="43" font-family="Tahoma"><tspan x="0" y="0">Episode 1 Colours Breakdown</tspan></text></g><g transform="translate(1080 1454.631)"><text transform="translate(0 43.369)" fill="#14151e" font-size="43" font-family="Tahoma"><tspan x="0" y="0">Getting Started</tspan></text><text transform="translate(938 43.369)" fill="#14151e" font-size="43" font-family="Tahoma"><tspan x="-46.947" y="0">25</tspan></text><line x2="580.389" transform="translate(300.014 26.412)" fill="none" stroke="#9e0da5" stroke-width="1" stroke-dasharray="5 24"/></g><line x2="56.21" transform="translate(1904.193 1550.121)" fill="none" stroke="#9e0da5" stroke-width="1" stroke-dasharray="5 24"/><line x2="106.326" transform="translate(1854.078 1757.354)" fill="none" stroke="#9e0da5" stroke-width="1" stroke-dasharray="5 24"/><g transform="translate(1080 1869.098)"><text transform="translate(0 42.902)" fill="#14151e" font-size="43" font-family="Tahoma"><tspan x="0" y="0">Visualization 6: SFX Words Cloud Process</tspan></text><text transform="translate(940 42.902)" fill="#14151e" font-size="43" font-family="Tahoma"><tspan x="-46.947" y="0">51</tspan></text><line x2="91.427" transform="translate(788.977 26.412)" fill="none" stroke="#9e0da5" stroke-width="1" stroke-dasharray="5 24"/></g><line x2="313.559" transform="translate(1646.844 1964.588)" fill="none" stroke="#9e0da5" stroke-width="1" stroke-dasharray="5 24"/><g transform="translate(1080 1800.02)"><text transform="translate(0 42.98)" fill="#14151e" font-size="43" font-family="Tahoma"><tspan x="0" y="0">Visualization 5: Parallels Process</tspan></text><text transform="translate(940 42.98)" fill="#14151e" font-size="43" font-family="Tahoma"><tspan x="-46.947" y="0">48</tspan></text><line x2="279.697" transform="translate(600.706 26.412)" fill="none" stroke="#9e0da5" stroke-width="1" stroke-dasharray="5 24"/></g><g transform="translate(1080 1661.865)"><text transform="translate(0 43.135)" fill="#14151e" font-size="43" font-family="Tahoma"><tspan x="0" y="0">Visualization 3: from Powder to JINX Process</tspan></text><text transform="translate(940 43.135)" fill="#14151e" font-size="43" font-family="Tahoma"><tspan x="-46.947" y="0">41</tspan></text><line x2="15.576" transform="translate(864.827 26.412)" fill="none" stroke="#9e0da5" stroke-width="1" stroke-dasharray="5 24"/></g></g></svg>