<svg xmlns="http://www.w3.org/2000/svg" xmlns:xlink="http://www.w3.org/1999/xlink" width="2160" height="2160" viewBox="0 0 2160 2160"><defs><clipPath id="b"><rect width="2160" height="2160"/></clipPath></defs><g id="a" clip-path="url(#b)"><rect width="2160" height="2160" fill="#14151e"/><g transform="translate(1080 1361.709)"><text transform="translate(0 43.291)" fill="#c3a8c9" font-size="43" font-family="Tahoma"><tspan x="0" y="0">hypothesis statements</tspan></text><text transform="translate(940 42.291)" fill="#c3a8c9" font-size="42" font-family="Tahoma"><tspan x="-22.928" y="0">3</tspan></text></g><g transform="translate(1080 1430.787)"><text transform="translate(0 43.213)" fill="#c3a8c9" font-size="43" font-family="Tahoma"><tspan x="0" y="0">Visualization 1: A Colour A Second</tspan></text><text transform="translate(940 42.213)" fill="#c3a8c9" font-size="42" font-family="Tahoma"><tspan x="-22.928" y="0">4</tspan></text></g><g transform="translate(1080 1499.865)"><text transform="translate(0 43.135)" fill="#c3a8c9" font-size="43" font-family="Tahoma"><tspan x="0" y="0">Visualization 2: Who&apos;s Most Talkative?</tspan></text><text transform="translate(940 42.135)" fill="#c3a8c9" font-size="42" font-family="Tahoma"><tspan x="-22.928" y="0">6</tspan></text></g><g transform="translate(1080 1568.942)"><text transform="translate(0 43.058)" fill="#c3a8c9" font-size="43" font-family="Tahoma"><tspan x="0" y="0">Visualization 3: from Powder to JINX</tspan></text><text transform="translate(940 42.058)" fill="#c3a8c9" font-size="42" font-family="Tahoma"><tspan x="-22.928" y="0">8</tspan></text></g><g transform="translate(1080 1707.098)"><text transform="translate(0 42.902)" fill="#c3a8c9" font-size="43" font-family="Tahoma"><tspan x="0" y="0">Visualization 5: Parallels</tspan></text><text transform="translate(940 42.902)" fill="#c3a8c9" font-size="43" font-family="Tahoma"><tspan x="-46.947" y="0">14</tspan></text></g><g transform="translate(1080 1292.631)"><text transform="translate(0 43.369)" fill="#c3a8c9" font-size="43" font-family="Tahoma"><tspan x="0" y="0">theoretical framework</tspan></text><text transform="translate(939 42.369)" fill="#c3a8c9" font-size="42" font-family="Tahoma"><tspan x="-22.928" y="0">2</tspan></text><line x2="451.037" transform="translate(442.233 26.412)" fill="none" stroke="#c3a8c9" stroke-width="1" stroke-dasharray="5 24"/></g><line x2="451.037" transform="translate(1522.233 1388.121)" fill="none" stroke="#c3a8c9" stroke-width="1" stroke-dasharray="5 24"/><line x2="224.841" transform="translate(1748.429 1457.199)" fill="none" stroke="#c3a8c9" stroke-width="1" stroke-dasharray="5 24"/><line x2="165.245" transform="translate(1808.026 1526.277)" fill="none" stroke="#c3a8c9" stroke-width="1" stroke-dasharray="5 24"/><line x2="192.334" transform="translate(1780.937 1595.354)" fill="none" stroke="#c3a8c9" stroke-width="1" stroke-dasharray="5 24"/><g transform="translate(1080 1638.02)"><text transform="translate(0 42.98)" fill="#c3a8c9" font-size="43" font-family="Tahoma"><tspan x="0" y="0">Visualization 4: Show, Don&apos;t Tell</tspan></text><text transform="translate(940 42.98)" fill="#c3a8c9" font-size="43" font-family="Tahoma"><tspan x="-46.947" y="0">12</tspan></text><line x2="270.893" transform="translate(622.378 26.412)" fill="none" stroke="#c3a8c9" stroke-width="1" stroke-dasharray="5 24"/></g><line x2="451.037" transform="translate(1522.233 1733.51)" fill="none" stroke="#c3a8c9" stroke-width="1" stroke-dasharray="5 24"/><g transform="translate(1080 1776.176)"><text transform="translate(0 42.824)" fill="#c3a8c9" font-size="43" font-family="Tahoma"><tspan x="0" y="0">Visualization 6: SFX Words Cloud</tspan></text><text transform="translate(940 42.824)" fill="#c3a8c9" font-size="43" font-family="Tahoma"><tspan x="-46.947" y="0">16</tspan></text><line x2="262.767" transform="translate(630.504 26.412)" fill="none" stroke="#c3a8c9" stroke-width="1" stroke-dasharray="5 24"/></g></g></svg>