<svg xmlns="http://www.w3.org/2000/svg" xmlns:xlink="http://www.w3.org/1999/xlink" width="2160" height="2160" viewBox="0 0 2160 2160">
  <defs>
    <clipPath id="clip-_4">
      <rect width="2160" height="2160"/>
    </clipPath>
  </defs>
  <g id="_4" data-name="4" clip-path="url(#clip-_4)">
    <rect width="2160" height="2160" fill="#fff"/>
    <text id="theoretical_framework" data-name="theoretical framework" transform="translate(71 319)" fill="#1e141a" font-size="86" font-family="TabacGlamG1-Regular"><tspan x="0" y="0">theoretical framework</tspan></text>
    <text id="Vander_present" data-name="Vander present" transform="translate(143.5 755.439)" fill="#1e141a" font-size="42" font-family="Tahoma"><tspan x="0" y="0">Vander present</tspan></text>
    <text id="The_colors_undertones_of_the_undercity" data-name="The colors undertones of the undercity" transform="translate(662.5 923.439)" fill="#1e141a" font-size="42" font-family="Tahoma"><tspan x="0" y="0">The colors undertones of the undercity</tspan></text>
    <text id="The_episode_tune" data-name="The episode tune" transform="translate(1696 916.439)" fill="#1e141a" font-size="42" font-family="Tahoma"><tspan x="0" y="0">The episode tune</tspan></text>
    <text id="top_words" data-name="top words" transform="translate(1833 1331)" fill="#1e141a" font-size="42" font-family="Tahoma"><tspan x="0" y="0">top words</tspan></text>
    <text id="dialogue_to_action_ratio" data-name="dialogue to action ratio" transform="translate(1590 1723)" fill="#1e141a" font-size="42" font-family="Tahoma"><tspan x="0" y="0">dialogue to action ratio</tspan></text>
    <text id="who_gets_talkative" data-name="who gets talkative" transform="translate(1172 1305)" fill="#1e141a" font-size="42" font-family="Tahoma"><tspan x="0" y="0">who gets talkative</tspan></text>
    <text id="lines_count" data-name="lines count" transform="translate(852 1546)" fill="#1e141a" font-size="42" font-family="Tahoma"><tspan x="0" y="0">lines count</tspan></text>
    <text id="episodes_length" data-name="episodes length" transform="translate(221 1546)" fill="#1e141a" font-size="42" font-family="Tahoma"><tspan x="0" y="0">episodes length</tspan></text>
    <g id="Component_4_1" data-name="Component 4 – 1" transform="translate(409.691 718.035)">
      <g id="Icon_feather-arrow-down-left" data-name="Icon feather-arrow-down-left" transform="matrix(-0.259, -0.966, 0.966, -0.259, 42.408, 248.669)">
        <path id="Path_10" data-name="Path 10" d="M203.037,10.5,10.5,203.037" fill="none" stroke="#df54e5" stroke-linecap="round" stroke-linejoin="round" stroke-width="3"/>
        <path id="Path_11" data-name="Path 11" d="M27.984,285.049,10.5,286.728l.9-18.266" transform="translate(0 -83.691)" fill="none" stroke="#df54e5" stroke-linecap="round" stroke-linejoin="round" stroke-width="3"/>
      </g>
      <g id="Component_3_1" data-name="Component 3 – 1" transform="translate(68.809 98.405)">
        <rect id="Rectangle_92" data-name="Rectangle 92" width="99" height="42" fill="#fff"/>
        <text id="Affect" transform="translate(9 34)" fill="#df54e5" font-size="32" font-family="Tahoma"><tspan x="0" y="0">Affect</tspan></text>
      </g>
    </g>
    <g id="Component_4_3" data-name="Component 4 – 3" transform="translate(1869.274 1022.483) rotate(120)">
      <g id="Icon_feather-arrow-down-left-2" data-name="Icon feather-arrow-down-left" transform="matrix(-0.259, -0.966, 0.966, -0.259, 92.157, 436.092)">
        <path id="Path_10-2" data-name="Path 10" d="M356.068,0,0,356.068" transform="translate(0 0)" fill="none" stroke="#df54e5" stroke-linecap="round" stroke-linejoin="round" stroke-width="3"/>
        <path id="Path_11-2" data-name="Path 11" d="M17.484,16.587,0,18.266.9,0" transform="translate(0 337.802)" fill="none" stroke="#df54e5" stroke-linecap="round" stroke-linejoin="round" stroke-width="3"/>
      </g>
      <g id="Component_3_1-2" data-name="Component 3 – 1" transform="translate(247.306 271.187) rotate(-150)">
        <rect id="Rectangle_92-2" data-name="Rectangle 92" width="99" height="42" fill="#fff"/>
        <text id="Affect-2" data-name="Affect" transform="translate(9 34)" fill="#df54e5" font-size="32" font-family="Tahoma"><tspan x="0" y="0">Affect</tspan></text>
      </g>
    </g>
    <g id="Component_4_7" data-name="Component 4 – 7" transform="matrix(-0.766, 0.643, -0.643, -0.766, 1870.796, 1466.795)">
      <g id="Icon_feather-arrow-down-left-3" data-name="Icon feather-arrow-down-left" transform="matrix(-0.259, -0.966, 0.966, -0.259, 129.569, 613.129)">
        <path id="Path_10-3" data-name="Path 10" d="M500.618,0,0,500.618" transform="translate(0 0)" fill="none" stroke="#df54e5" stroke-linecap="round" stroke-linejoin="round" stroke-width="3"/>
        <path id="Path_11-3" data-name="Path 11" d="M17.484,16.587,0,18.266.9,0" transform="translate(0 482.352)" fill="none" stroke="#df54e5" stroke-linecap="round" stroke-linejoin="round" stroke-width="3"/>
      </g>
      <g id="Component_3_1-3" data-name="Component 3 – 1" transform="translate(350.773 362.621) rotate(-150)">
        <rect id="Rectangle_92-3" data-name="Rectangle 92" width="141" height="42" fill="#fff"/>
        <text id="Part_of" data-name="Part of" transform="translate(23.169 33.051)" fill="#df54e5" font-size="32" font-family="Tahoma"><tspan x="0" y="0">Part of</tspan></text>
      </g>
    </g>
    <g id="Component_4_6" data-name="Component 4 – 6" transform="translate(1216.264 1372.044) rotate(120)">
      <g id="Icon_feather-arrow-down-left-4" data-name="Icon feather-arrow-down-left" transform="matrix(-0.259, -0.966, 0.966, -0.259, 46.087, 218.087)">
        <path id="Path_10-4" data-name="Path 10" d="M178.068,0,0,178.068" transform="translate(0 0)" fill="none" stroke="#df54e5" stroke-linecap="round" stroke-linejoin="round" stroke-width="3"/>
        <path id="Path_11-4" data-name="Path 11" d="M17.484,16.587,0,18.266.9,0" transform="translate(0 159.802)" fill="none" stroke="#df54e5" stroke-linecap="round" stroke-linejoin="round" stroke-width="3"/>
      </g>
      <g id="Component_3_1-4" data-name="Component 3 – 1" transform="translate(134.134 148.665) rotate(-150)">
        <rect id="Rectangle_92-4" data-name="Rectangle 92" width="99" height="42" fill="#fff"/>
        <text id="Affect-3" data-name="Affect" transform="translate(9 34)" fill="#df54e5" font-size="32" font-family="Tahoma"><tspan x="0" y="0">Affect</tspan></text>
      </g>
    </g>
    <g id="Component_4_8" data-name="Component 4 – 8" transform="translate(1099.637 1118.774)">
      <g id="Icon_feather-arrow-down-left-5" data-name="Icon feather-arrow-down-left" transform="matrix(-0.259, -0.966, 0.966, -0.259, 30.479, 144.226)">
        <path id="Path_10-5" data-name="Path 10" d="M117.76,0,0,117.76" transform="translate(0 0)" fill="none" stroke="#df54e5" stroke-linecap="round" stroke-linejoin="round" stroke-width="3"/>
        <path id="Path_11-5" data-name="Path 11" d="M17.484,16.587,0,18.266.9,0" transform="translate(0 99.495)" fill="none" stroke="#df54e5" stroke-linecap="round" stroke-linejoin="round" stroke-width="3"/>
      </g>
      <g id="Component_3_1-5" data-name="Component 3 – 1" transform="translate(117.427 113.647) rotate(-150)">
        <rect id="Rectangle_92-5" data-name="Rectangle 92" width="127.707" height="42" fill="#fff"/>
        <text id="Part_of-2" data-name="Part of" transform="translate(109.994 6.321) rotate(180)" fill="#df54e5" font-size="28" font-family="Tahoma"><tspan x="0" y="0">Part of</tspan></text>
      </g>
    </g>
    <g id="Component_4_4" data-name="Component 4 – 4" transform="translate(1983.096 957.378) rotate(60)">
      <g id="Icon_feather-arrow-down-left-6" data-name="Icon feather-arrow-down-left" transform="matrix(-0.259, -0.966, 0.966, -0.259, 42.408, 248.669)">
        <path id="Path_10-6" data-name="Path 10" d="M203.037,10.5,10.5,203.037" fill="none" stroke="#df54e5" stroke-linecap="round" stroke-linejoin="round" stroke-width="3"/>
        <path id="Path_11-6" data-name="Path 11" d="M27.984,285.049,10.5,286.728l.9-18.266" transform="translate(0 -83.691)" fill="none" stroke="#df54e5" stroke-linecap="round" stroke-linejoin="round" stroke-width="3"/>
      </g>
      <g id="Component_3_1-6" data-name="Component 3 – 1" transform="translate(150.677 162.341) rotate(-150)">
        <rect id="Rectangle_92-6" data-name="Rectangle 92" width="99" height="42" fill="#fff"/>
        <text id="Affect-4" data-name="Affect" transform="translate(9 34)" fill="#df54e5" font-size="32" font-family="Tahoma"><tspan x="0" y="0">Affect</tspan></text>
      </g>
    </g>
    <g id="Component_4_9" data-name="Component 4 – 9" transform="translate(1983.096 1349.5) rotate(60)">
      <g id="Icon_feather-arrow-down-left-7" data-name="Icon feather-arrow-down-left" transform="matrix(-0.259, -0.966, 0.966, -0.259, 42.408, 248.669)">
        <path id="Path_10-7" data-name="Path 10" d="M203.037,10.5,10.5,203.037" fill="none" stroke="#df54e5" stroke-linecap="round" stroke-linejoin="round" stroke-width="3"/>
        <path id="Path_11-7" data-name="Path 11" d="M27.984,285.049,10.5,286.728l.9-18.266" transform="translate(0 -83.691)" fill="none" stroke="#df54e5" stroke-linecap="round" stroke-linejoin="round" stroke-width="3"/>
      </g>
      <g id="Component_3_1-7" data-name="Component 3 – 1" transform="translate(164.701 170.438) rotate(-150)">
        <rect id="Rectangle_92-7" data-name="Rectangle 92" width="163.482" height="42" fill="#fff"/>
        <text id="Contribute" transform="translate(7.193 33.5)" fill="#df54e5" font-size="32" font-family="Tahoma"><tspan x="0" y="0">Contribute</tspan></text>
      </g>
    </g>
    <g id="Component_4_2" data-name="Component 4 – 2" transform="translate(1373.379 863.783) rotate(-30)">
      <g id="Icon_feather-arrow-down-left-8" data-name="Icon feather-arrow-down-left" transform="matrix(-0.259, -0.966, 0.966, -0.259, 42.408, 248.669)">
        <path id="Path_10-8" data-name="Path 10" d="M203.037,10.5,10.5,203.037" fill="none" stroke="#df54e5" stroke-linecap="round" stroke-linejoin="round" stroke-width="3"/>
        <path id="Path_11-8" data-name="Path 11" d="M27.984,285.049,10.5,286.728l.9-18.266" transform="translate(0 -83.691)" fill="none" stroke="#df54e5" stroke-linecap="round" stroke-linejoin="round" stroke-width="3"/>
      </g>
      <g id="Component_3_1-8" data-name="Component 3 – 1" transform="translate(59.745 73.468)">
        <rect id="Rectangle_92-8" data-name="Rectangle 92" width="116" height="42" transform="translate(21) rotate(30)" fill="#fff"/>
        <text id="Set_up" data-name="Set up" transform="translate(17.91 34.512) rotate(30)" fill="#df54e5" font-size="32" font-family="Tahoma"><tspan x="0" y="0">Set up</tspan></text>
      </g>
    </g>
    <g id="Component_4_5" data-name="Component 4 – 5" transform="translate(519.939 1486.344) rotate(-30)">
      <g id="Icon_feather-arrow-down-left-9" data-name="Icon feather-arrow-down-left" transform="translate(42.408 248.669) rotate(-105)">
        <path id="Path_10-9" data-name="Path 10" d="M203.037,10.5,10.5,203.037" fill="none" stroke="#df54e5" stroke-linecap="round" stroke-linejoin="round" stroke-width="3"/>
        <path id="Path_11-9" data-name="Path 11" d="M27.984,285.049,10.5,286.728l.9-18.266" transform="translate(0 -83.691)" fill="none" stroke="#df54e5" stroke-linecap="round" stroke-linejoin="round" stroke-width="3"/>
      </g>
      <g id="Icon_feather-arrow-down-left-10" data-name="Icon feather-arrow-down-left" transform="matrix(0.259, 0.966, -0.966, 0.259, 193.401, -12.86)">
        <path id="Path_10-10" data-name="Path 10" d="M203.037,10.5,10.5,203.037" fill="none" stroke="#df54e5" stroke-linecap="round" stroke-linejoin="round" stroke-width="3"/>
        <path id="Path_11-10" data-name="Path 11" d="M27.984,285.049,10.5,286.728l.9-18.266" transform="translate(0 -83.691)" fill="none" stroke="#df54e5" stroke-linecap="round" stroke-linejoin="round" stroke-width="3"/>
      </g>
      <g id="Component_3_1-9" data-name="Component 3 – 1" transform="translate(52.297 69.168)">
        <rect id="Rectangle_92-9" data-name="Rectangle 92" width="134" height="42" transform="translate(21) rotate(30)" fill="#fff"/>
        <text id="Part_of-3" data-name="Part of" transform="translate(21.738 36.722) rotate(30)" fill="#df54e5" font-size="32" font-family="Tahoma"><tspan x="0" y="0">Part of</tspan></text>
      </g>
    </g>
    <line id="Line_8" data-name="Line 8" x2="1530" transform="translate(71.5 367.5)" fill="none" stroke="#14151e" stroke-width="2"/>
    <text id="Vi_talkatively_" data-name="Vi talkatively " transform="translate(881.939 1124.001)" fill="#1e141a" font-size="32" font-family="Tahoma"><tspan x="0" y="0">Vi talkatively </tspan></text>
    <text id="Jinx_existence" data-name="Jinx existence" transform="translate(415.939 1124.001)" fill="#1e141a" font-size="32" font-family="Tahoma"><tspan x="0" y="0">Jinx existence</tspan></text>
    <g id="Icon_feather-arrow-down-left-11" data-name="Icon feather-arrow-down-left" transform="translate(745.681 989.773) rotate(45)">
      <path id="Path_10-11" data-name="Path 10" d="M172.172,10.5,10.5,171.7" transform="translate(0 0)" fill="none" stroke="#df54e5" stroke-linecap="round" stroke-linejoin="round" stroke-width="3"/>
      <path id="Path_11-11" data-name="Path 11" d="M27.984,285.049,10.5,286.728l.9-18.266" transform="translate(0 -115.03)" fill="none" stroke="#df54e5" stroke-linecap="round" stroke-linejoin="round" stroke-width="3"/>
    </g>
    <rect id="Rectangle_93" data-name="Rectangle 93" width="150" height="51" transform="translate(680.939 1092.001)" fill="#fff"/>
    <text id="Contribute-2" data-name="Contribute" transform="translate(691.939 1125.001)" fill="#df54e5" font-size="28" font-family="Tahoma"><tspan x="0" y="0">Contribute</tspan></text>
  </g>
</svg>
