<?xml version="1.0" encoding="utf-8"?>
<!-- Generator: Adobe Illustrator 27.7.0, SVG Export Plug-In . SVG Version: 6.00 Build 0)  -->
<svg version="1.1" id="Layer_1" xmlns="http://www.w3.org/2000/svg" xmlns:xlink="http://www.w3.org/1999/xlink" x="0px" y="0px"
	 viewBox="0 0 32 32" style="enable-background:new 0 0 32 32;" xml:space="preserve">
<path d="M20.7,17.5v3c0,0.7-0.3,1.4-0.8,1.9c-0.5,0.5-1.2,0.8-1.9,0.8h-7.7c-0.7,0-1.4-0.3-1.9-0.8c-0.5-0.5-0.8-1.2-0.8-1.9v-7.7
	c0-0.7,0.3-1.4,0.8-1.9s1.2-0.8,1.9-0.8h6.5c0.1,0,0.2,0,0.2,0.1s0.1,0.1,0.1,0.2V11c0,0.1,0,0.2-0.1,0.2s-0.1,0.1-0.2,0.1h-6.5
	c-0.4,0-0.8,0.1-1,0.4c-0.3,0.3-0.4,0.6-0.4,1v7.7c0,0.4,0.1,0.8,0.4,1c0.3,0.3,0.6,0.4,1,0.4h7.7c0.4,0,0.8-0.1,1-0.4
	c0.3-0.3,0.4-0.6,0.4-1v-3c0-0.1,0-0.2,0.1-0.2c0.1-0.1,0.1-0.1,0.2-0.1h0.6c0.1,0,0.2,0,0.2,0.1C20.7,17.3,20.7,17.4,20.7,17.5z
	 M24.3,9.5v4.7c0,0.2-0.1,0.3-0.2,0.4s-0.3,0.2-0.4,0.2c-0.2,0-0.3-0.1-0.4-0.2L21.7,13l-6,6c-0.1,0.1-0.1,0.1-0.2,0.1
	s-0.2,0-0.2-0.1L14.1,18c-0.1-0.1-0.1-0.1-0.1-0.2c0-0.1,0-0.2,0.1-0.2l6-6l-1.6-1.6c-0.1-0.1-0.2-0.3-0.2-0.4
	c0-0.2,0.1-0.3,0.2-0.4s0.3-0.2,0.4-0.2h4.7c0.2,0,0.3,0.1,0.4,0.2S24.3,9.3,24.3,9.5z"/>
</svg>
